<?xml version="1.0" encoding="utf-8"?>
<!-- Generator: Adobe Illustrator 17.0.0, SVG Export Plug-In . SVG Version: 6.00 Build 0)  -->
<!DOCTYPE svg PUBLIC "-//W3C//DTD SVG 1.1//EN" "http://www.w3.org/Graphics/SVG/1.1/DTD/svg11.dtd">
<svg version="1.1" xmlns="http://www.w3.org/2000/svg" xmlns:xlink="http://www.w3.org/1999/xlink" x="0px" y="0px"
	 width="136.705px" height="161.523px" viewBox="0 0 136.705 161.523" enable-background="new 0 0 136.705 161.523"
	 xml:space="preserve">
<g id="diseño">
	<g>
		<g>
			<path fill="#737373" d="M68.276,120.322c-0.982,1.643-1.759,2.918-2.513,4.206c-6.631,11.329-13.255,22.663-19.887,33.991
				c-2.014,3.441-4.295,3.439-6.277-0.006c-3.393-5.898-6.812-11.781-10.128-17.722c-0.689-1.235-1.474-1.623-2.849-1.611
				c-7.473,0.066-14.946,0.034-22.419,0.03c-4.028-0.002-5.258-2.155-3.265-5.689c7.393-13.112,14.785-26.225,22.173-39.34
				c0.318-0.564,0.598-1.149,0.937-1.803c-0.57-0.404-1.06-0.733-1.529-1.088c-2.281-1.725-2.808-4.1-2.432-6.768
				c0.544-3.865,1.119-7.726,1.705-11.585c0.228-1.501,0.005-2.706-1.181-3.894c-2.85-2.856-5.522-5.89-8.25-8.867
				c-2.673-2.918-2.706-6.321-0.022-9.209c2.912-3.134,5.942-6.161,8.797-9.346c0.574-0.641,0.906-1.804,0.823-2.677
				c-0.414-4.364-1.08-8.704-1.507-13.067c-0.365-3.732,1.952-6.557,5.615-7.175c4.263-0.72,8.531-1.412,12.77-2.257
				c0.75-0.149,1.602-0.843,2-1.524c2.16-3.687,4.175-7.459,6.273-11.183c2.122-3.767,5.062-4.67,8.948-2.784
				c3.791,1.84,7.553,3.743,11.386,5.489c0.745,0.339,1.885,0.369,2.632,0.049c3.649-1.565,7.221-3.307,10.829-4.968
				c4.604-2.12,7.488-1.172,9.877,3.228c1.867,3.439,3.783,6.853,5.571,10.333c0.668,1.3,1.524,1.953,2.983,2.21
				c4.198,0.74,8.375,1.604,12.545,2.49c3.373,0.716,5.389,3.644,4.932,7.096c-0.583,4.406-1.265,8.799-1.775,13.213
				c-0.089,0.771,0.238,1.811,0.751,2.395c2.744,3.122,5.611,6.136,8.43,9.192c3.081,3.339,3.098,6.625,0.023,9.891
				c-2.727,2.896-5.456,5.79-8.237,8.633c-0.851,0.87-1.332,1.685-1.146,2.999c0.513,3.628,0.79,7.289,1.304,10.917
				c0.463,3.268,0.375,6.242-2.656,8.418c-0.291,0.209-0.184,1.407,0.112,1.936c4.891,8.717,9.843,17.399,14.781,26.09
				c2.528,4.45,5.059,8.898,7.583,13.351c1.671,2.948,0.346,5.279-3.049,5.289c-7.654,0.023-15.309,0.054-22.962-0.032
				c-1.5-0.017-2.263,0.531-2.946,1.772c-3.337,6.067-6.767,12.083-10.118,18.141c-0.706,1.276-1.577,2.7-3.027,2.397
				c-1.153-0.241-2.433-1.337-3.06-2.404c-7.135-12.15-14.154-24.367-21.207-36.565C69.262,121.901,68.878,121.305,68.276,120.322z
				 M16.123,55.837c0.554,0.637,0.937,1.096,1.338,1.538c2.836,3.122,5.67,6.246,8.517,9.359c1.337,1.462,1.988,3.174,1.731,5.132
				c-0.579,4.406-1.113,8.824-1.915,13.192c-0.299,1.632,0.288,2.018,1.597,2.251c4.138,0.737,8.259,1.582,12.41,2.231
				c2.473,0.387,4.209,1.552,5.347,3.772c1.785,3.481,3.65,6.92,5.476,10.38c1.293,2.45,1.292,2.457,3.877,1.239
				c3.376-1.59,6.791-3.104,10.108-4.808c2.521-1.295,4.843-1.308,7.364,0.029c3.56,1.888,7.255,3.522,10.843,5.36
				c1.192,0.611,1.769,0.385,2.384-0.765c2.014-3.77,4.135-7.482,6.194-11.228c1.156-2.103,2.877-3.263,5.273-3.627
				c4.154-0.631,8.28-1.442,12.433-2.081c1.106-0.17,1.447-0.624,1.314-1.657c-0.431-3.336-0.65-6.713-1.306-10.003
				c-0.842-4.225-0.282-7.724,3.242-10.68c2.664-2.235,4.881-4.996,7.363-7.455c0.884-0.876,0.871-1.478,0.024-2.37
				c-2.988-3.146-5.886-6.376-8.86-9.535c-1.514-1.609-2.111-3.473-1.816-5.629c0.585-4.284,1.069-8.588,1.859-12.835
				c0.327-1.759-0.414-2.053-1.744-2.308c-4.127-0.791-8.231-1.71-12.372-2.418c-2.307-0.395-3.803-1.637-4.847-3.614
				c-2.024-3.832-4.09-7.642-6.064-11.5c-0.562-1.098-1.117-1.304-2.24-0.768c-3.91,1.863-7.891,3.582-11.791,5.464
				c-2.193,1.058-4.213,1.003-6.37-0.102c-3.747-1.921-7.577-3.678-11.335-5.579c-1.108-0.561-1.668-0.394-2.261,0.716
				c-2.042,3.823-4.19,7.589-6.286,11.383c-1.126,2.038-2.808,3.178-5.13,3.546c-4.15,0.659-8.279,1.453-12.423,2.152
				c-1.242,0.209-1.951,0.652-1.742,2.107c0.487,3.389,0.694,6.827,1.346,10.18c0.772,3.969,0.194,7.217-3.02,10.064
				C21.635,49.632,19.043,52.76,16.123,55.837z M93.881,152.347c0.504-0.812,0.929-1.446,1.303-2.109
				c2.751-4.874,5.547-9.724,8.207-14.647c0.922-1.706,2.105-2.366,4.035-2.338c6.324,0.091,12.649,0.04,18.974,0.025
				c0.675-0.002,1.35-0.125,2.17-0.207c-0.231-0.596-0.319-0.945-0.49-1.247c-6.881-12.148-13.783-24.284-20.636-36.448
				c-0.568-1.008-1.293-1.129-2.239-0.95c-2.3,0.433-4.621,0.787-6.881,1.374c-0.805,0.209-1.723,0.842-2.139,1.547
				c-2.141,3.626-4.12,7.347-6.186,11.018c-2.101,3.735-5.241,4.7-9.145,2.816c-3.737-1.803-7.44-3.679-11.203-5.424
				c-0.656-0.305-1.538-0.124-2.315-0.168c0.188,0.647,0.257,1.363,0.582,1.931c8.315,14.517,16.656,29.02,25.001,43.52
				C93.15,151.439,93.467,151.789,93.881,152.347z M42.846,152.024c0.683-1.1,1.176-1.842,1.619-2.613
				c5.932-10.335,11.85-20.678,17.788-31.01c2.586-4.499,2.568-4.468-0.152-8.914c-0.625-1.022-1.208-1.117-2.185-0.63
				c-1.615,0.805-3.247,1.584-4.913,2.275c-3.662,1.518-6.617,0.477-8.528-2.994c-2.089-3.796-4.1-7.635-6.231-11.407
				c-0.37-0.655-1.087-1.371-1.774-1.542c-2.09-0.522-4.271-0.683-6.364-1.197c-1.522-0.374-2.245,0.151-2.965,1.438
				c-6.673,11.921-13.408,23.808-20.118,35.708c-0.308,0.547-0.546,1.135-0.947,1.979c1.003,0.072,1.697,0.163,2.391,0.164
				c6.386,0.012,12.772,0.045,19.157-0.017c1.65-0.016,2.737,0.612,3.522,2.004c1.389,2.464,2.818,4.906,4.237,7.353
				C39.128,145.631,40.879,148.639,42.846,152.024z"/>
			<path fill="#737373" d="M68.334,87.894c-17.555,0.014-31.566-14.1-31.719-31.668c-0.149-17.121,14.187-31.765,31.635-31.805
				c15.894-0.036,31.704,12.603,31.73,31.724C100.005,75.249,84.221,88.146,68.334,87.894z M42.567,56.135
				c-0.004,14.251,11.458,25.836,25.579,25.853c14.238,0.017,26.064-11.576,25.939-25.751
				c-0.135-15.332-12.545-25.916-25.837-25.872C54.087,30.412,42.571,41.929,42.567,56.135z"/>
		</g>
	</g>
</g>
<g id="Capa_4" display="none">
</g>
<g id="guias" display="none">
	<g display="inline" opacity="0.5">
		<g>
			<g>
				<g opacity="0.4">
					<g>
						<path fill="#00FFFF" d="M163.736,2169.846c0,1.65-1.35,3-3,3h-64c-1.65,0-3-1.35-3-3v-2994c0-1.65,1.35-3,3-3h64
							c1.65,0,3,1.35,3,3V2169.846z"/>
					</g>
					<g>
						<path fill="#00FFFF" d="M63.736,2169.846c0,1.65-1.35,3-3,3h-64c-1.65,0-3-1.35-3-3v-2994c0-1.65,1.35-3,3-3h64
							c1.65,0,3,1.35,3,3V2169.846z"/>
					</g>
				</g>
				<g id="Gutters_1_" opacity="0.6">
				</g>
			</g>
		</g>
		<g>
			<g>
				<rect x="-721.264" y="152.846" fill="#6B5692" width="1200" height="10"/>
			</g>
			<g>
				<rect x="-721.264" y="132.846" fill="#6B5692" width="1200" height="10"/>
			</g>
			<g>
				<rect x="-721.264" y="112.846" fill="#6B5692" width="1200" height="10"/>
			</g>
			<g>
				<rect x="-721.264" y="92.846" fill="#6B5692" width="1200" height="10"/>
			</g>
			<g>
				<rect x="-721.264" y="72.846" fill="#6B5692" width="1200" height="10"/>
			</g>
			<g>
				<rect x="-721.264" y="52.846" fill="#6B5692" width="1200" height="10"/>
			</g>
			<g>
				<rect x="-721.264" y="32.846" fill="#6B5692" width="1200" height="10"/>
			</g>
			<g>
				<rect x="-721.264" y="12.846" fill="#6B5692" width="1200" height="10"/>
			</g>
			<g>
				<rect x="-721.264" y="-7.154" fill="#6B5692" width="1200" height="10"/>
			</g>
		</g>
	</g>
</g>
</svg>
